<?xml version="1.0" encoding="UTF-8" standalone="no"?><!DOCTYPE svg PUBLIC "-//W3C//DTD SVG 1.1//EN" "http://www.w3.org/Graphics/SVG/1.1/DTD/svg11.dtd"><svg width="100%" height="100%" viewBox="0 0 2277 435" version="1.1" xmlns="http://www.w3.org/2000/svg" xmlns:xlink="http://www.w3.org/1999/xlink" xml:space="preserve" xmlns:serif="http://www.serif.com/" style="fill-rule:evenodd;clip-rule:evenodd;stroke-linejoin:round;stroke-miterlimit:2;"><g><g><clipPath id="_clip1"><path d="M170.024,434.908c69.749,-33.102 132.345,-89.282 155.921,-187.618c23.571,-98.34 10.504,-200.28 10.504,-200.28c0,-0 -67.334,-35.227 -166.424,-47.01c-99.073,11.784 -166.412,47.01 -166.412,47.01c0,0 -13.068,104.951 10.504,203.287c23.571,98.324 86.176,151.509 155.908,184.611Z"/></clipPath><g clip-path="url(#_clip1)"><path d="M126.717,79.445l-8.524,0c-6.395,0 -9.24,2.854 -9.24,9.249l0,183.058c0,6.383 2.845,9.22 9.24,9.22l8.524,0c6.395,0 9.232,-2.837 9.232,-9.22l0,-183.058c0,-6.395 -2.837,-9.249 -9.232,-9.249Zm22.735,358.168l-53.993,-0c-71.737,0 -106.55,-34.812 -106.55,-106.55l-0,-292.681c0,-71.737 34.812,-106.562 106.55,-106.562l53.993,0c71.75,0 106.55,34.825 106.55,106.562l0,292.681c0,71.737 -34.8,106.55 -106.55,106.55Z" style="fill:#0097e4;fill-rule:nonzero;"/><rect x="274.478" y="-71.008" width="113.657" height="504.363" style="fill:#0097e4;fill-rule:nonzero;"/></g></g><g transform="matrix(1.574383,0,0,1.574383,-180.228058,-480.233971)"><g><g transform="matrix(42.344626,0,0,42.344626,431.941081,525.732912)"><path d="M0.244,-0.7c-0.117,0 -0.173,0.056 -0.173,0.138c0,0.068 0.04,0.11 0.116,0.174l0.194,0.162c0.043,0.036 0.058,0.056 0.058,0.082c0,0.033 -0.021,0.051 -0.067,0.051l-0.3,0l0,0.093l0.363,-0c0.116,-0 0.173,-0.057 0.173,-0.143c0,-0.067 -0.036,-0.109 -0.117,-0.177l-0.192,-0.162c-0.041,-0.034 -0.059,-0.052 -0.059,-0.077c0,-0.032 0.022,-0.049 0.067,-0.049l0.285,0l0,-0.092l-0.348,0Z" style="fill:#222;fill-rule:nonzero;"/></g><g transform="matrix(42.344626,0,0,42.344626,478.223758,525.732912)"><path d="M0.108,-0.7l0,0.7l0.509,-0l0,-0.093l-0.351,0l0,-0.216l0.343,0l0,-0.093l-0.343,0l0,-0.206l0.351,0l0,-0.092l-0.509,0Z" style="fill:#222;fill-rule:nonzero;"/></g><g transform="matrix(42.344626,0,0,42.344626,525.522705,525.732912)"><path d="M0.304,-0.7c-0.084,0 -0.128,0.01 -0.16,0.043c-0.044,0.044 -0.073,0.136 -0.073,0.307c0,0.171 0.026,0.266 0.07,0.31c0.033,0.032 0.079,0.04 0.163,0.04l0.321,-0l0,-0.093l-0.242,0c-0.056,0 -0.082,-0.003 -0.102,-0.023c-0.034,-0.033 -0.047,-0.112 -0.047,-0.234c0,-0.122 0.013,-0.201 0.047,-0.235c0.02,-0.019 0.046,-0.023 0.102,-0.023l0.242,0l0,-0.092l-0.321,0Z" style="fill:#222;fill-rule:nonzero;"/></g><g transform="matrix(42.344626,0,0,42.344626,572.906341,525.732912)"><path d="M0.096,-0.7l0,0.457c0,0.115 0.015,0.174 0.048,0.207c0.029,0.029 0.077,0.04 0.148,0.04l0.231,-0c0.07,0 0.117,-0.01 0.147,-0.04c0.033,-0.033 0.047,-0.092 0.047,-0.207l0,-0.457l-0.152,0l0,0.449c0,0.084 -0.005,0.121 -0.027,0.143c-0.019,0.02 -0.047,0.025 -0.096,0.025l-0.065,0c-0.049,0 -0.077,-0.006 -0.096,-0.025c-0.021,-0.021 -0.027,-0.059 -0.027,-0.143l0,-0.449l-0.158,0Z" style="fill:#222;fill-rule:nonzero;"/></g><g transform="matrix(42.344626,0,0,42.344626,625.540712,525.732912)"><path d="M0.108,-0.7l0,0.7l0.158,-0l0,-0.268l0.144,0l0.146,0.268l0.165,-0l-0.157,-0.284c0.041,-0.005 0.067,-0.016 0.087,-0.036c0.035,-0.035 0.048,-0.091 0.048,-0.169c0,-0.092 -0.019,-0.144 -0.047,-0.172c-0.034,-0.034 -0.082,-0.039 -0.164,-0.039l-0.38,0Zm0.158,0.085l0.154,0c0.064,0 0.08,0.006 0.096,0.021c0.019,0.019 0.026,0.058 0.026,0.108c0,0.054 -0.006,0.094 -0.026,0.114c-0.015,0.014 -0.033,0.021 -0.096,0.021l-0.154,0l0,-0.264Z" style="fill:#222;fill-rule:nonzero;"/></g><g transform="matrix(42.344626,0,0,42.344626,676.438952,525.732912)"><path d="M0.108,-0.7l0,0.7l0.509,-0l0,-0.093l-0.351,0l0,-0.216l0.343,0l0,-0.093l-0.343,0l0,-0.206l0.351,0l0,-0.092l-0.509,0Z" style="fill:#222;fill-rule:nonzero;"/></g><g transform="matrix(42.344626,0,0,42.344626,723.737899,525.732912)"><path d="M0.108,-0.7l0,0.7l0.387,-0c0.093,-0 0.143,-0.011 0.181,-0.049c0.045,-0.045 0.072,-0.131 0.072,-0.301c0,-0.17 -0.024,-0.258 -0.07,-0.303c-0.038,-0.038 -0.09,-0.047 -0.183,-0.047l-0.387,0Zm0.158,0.087l0.165,0c0.06,0 0.089,0.006 0.109,0.026c0.037,0.036 0.048,0.117 0.048,0.237c0,0.12 -0.011,0.201 -0.048,0.237c-0.02,0.02 -0.049,0.026 -0.109,0.026l-0.165,0l0,-0.526Z" style="fill:#222;fill-rule:nonzero;"/></g><g transform="matrix(42.344626,0,0,42.344626,805.717095,525.732912)"><path d="M0.108,-0.7l0,0.7l0.445,-0c0.057,-0 0.09,-0.01 0.114,-0.034c0.03,-0.03 0.045,-0.08 0.045,-0.15c0,-0.069 -0.012,-0.114 -0.038,-0.14c-0.02,-0.02 -0.043,-0.028 -0.093,-0.032l0,-0.004c0.039,-0.002 0.065,-0.012 0.084,-0.031c0.026,-0.026 0.039,-0.072 0.039,-0.137c0,-0.064 -0.014,-0.111 -0.042,-0.139c-0.024,-0.024 -0.058,-0.033 -0.134,-0.033l-0.42,0Zm0.153,0.084l0.19,0c0.041,0 0.061,0.006 0.075,0.02c0.015,0.016 0.022,0.046 0.022,0.089c0,0.044 -0.006,0.073 -0.022,0.089c-0.015,0.015 -0.038,0.02 -0.075,0.02l-0.19,0l0,-0.218Zm0,0.301l0.197,0c0.039,0 0.059,0.005 0.075,0.021c0.017,0.018 0.025,0.046 0.025,0.096c0,0.046 -0.009,0.076 -0.027,0.094c-0.014,0.015 -0.033,0.02 -0.066,0.02l-0.204,0l0,-0.231Z" style="fill:#222;fill-rule:nonzero;"/></g><g transform="matrix(42.344626,0,0,42.344626,857.165816,525.732912)"><path d="M0.027,-0.7l0.255,0.47l0,0.23l0.164,-0l0,-0.23l0.252,-0.47l-0.121,0l-0.175,0.336c-0.004,0.009 -0.007,0.01 -0.013,0.01c-0.006,0 -0.009,-0.001 -0.014,-0.01l-0.176,-0.336l-0.172,0Z" style="fill:#222;fill-rule:nonzero;"/></g><g transform="matrix(42.344626,0,0,42.344626,934.868205,525.732912)"><path d="M0.294,-0.7l-0.258,0.7l0.114,-0l0.05,-0.14l0.323,0l0.046,0.14l0.165,-0l-0.228,-0.668c-0.009,-0.027 -0.016,-0.032 -0.049,-0.032l-0.163,0Zm0.061,0.127c0.004,-0.01 0.005,-0.012 0.013,-0.012c0.008,0 0.01,0.002 0.013,0.012l0.112,0.34l-0.26,-0l0.122,-0.34Z" style="fill:#222;fill-rule:nonzero;"/></g><g transform="matrix(42.344626,0,0,42.344626,985.639411,525.732912)"><path d="M0.108,-0.7l0,0.7l0.158,-0l0,-0.268l0.144,0l0.146,0.268l0.165,-0l-0.157,-0.284c0.041,-0.005 0.067,-0.016 0.087,-0.036c0.035,-0.035 0.048,-0.091 0.048,-0.169c0,-0.092 -0.019,-0.144 -0.047,-0.172c-0.034,-0.034 -0.082,-0.039 -0.164,-0.039l-0.38,0Zm0.158,0.085l0.154,0c0.064,0 0.08,0.006 0.096,0.021c0.019,0.019 0.026,0.058 0.026,0.108c0,0.054 -0.006,0.094 -0.026,0.114c-0.015,0.014 -0.033,0.021 -0.096,0.021l-0.154,0l0,-0.264Z" style="fill:#222;fill-rule:nonzero;"/></g><g transform="matrix(42.344626,0,0,42.344626,1036.537652,525.732912)"><path d="M0.108,-0.7l0,0.7l0.11,-0l0,-0.549c0,-0.009 0.003,-0.014 0.01,-0.014c0.007,0 0.01,0.004 0.014,0.013l0.204,0.55l0.125,-0c0.031,-0 0.035,-0.005 0.045,-0.03l0.197,-0.52c0.003,-0.009 0.006,-0.013 0.013,-0.013c0.008,0 0.01,0.004 0.01,0.014l0,0.549l0.149,-0l0,-0.7l-0.218,0l-0.202,0.537c-0.004,0.01 -0.006,0.014 -0.015,0.014c-0.008,0 -0.012,-0.004 -0.015,-0.014l-0.186,-0.507c-0.009,-0.025 -0.018,-0.03 -0.045,-0.03l-0.196,0Z" style="fill:#222;fill-rule:nonzero;"/></g><g transform="matrix(42.344626,0,0,42.344626,1101.028517,525.732912)"><path d="M0.304,-0.705c-0.084,0 -0.127,0.011 -0.16,0.044c-0.043,0.044 -0.073,0.135 -0.073,0.311c0,0.176 0.027,0.27 0.071,0.314c0.033,0.032 0.078,0.041 0.162,0.041l0.212,0c0.084,0 0.127,-0.011 0.159,-0.043c0.045,-0.045 0.074,-0.135 0.074,-0.312c0,-0.175 -0.025,-0.268 -0.07,-0.314c-0.033,-0.032 -0.078,-0.041 -0.163,-0.041l-0.212,0Zm0.076,0.084l0.061,0c0.056,0 0.083,0.006 0.102,0.025c0.034,0.034 0.047,0.113 0.047,0.246c0,0.133 -0.013,0.212 -0.048,0.246c-0.018,0.019 -0.045,0.025 -0.101,0.025l-0.061,0c-0.056,0 -0.082,-0.005 -0.102,-0.025c-0.034,-0.034 -0.047,-0.113 -0.047,-0.246c0,-0.133 0.013,-0.212 0.047,-0.246c0.019,-0.019 0.046,-0.025 0.102,-0.025Z" style="fill:#222;fill-rule:nonzero;"/></g><g transform="matrix(42.344626,0,0,42.344626,1153.9593,525.732912)"><path d="M0.108,-0.7l0,0.7l0.158,-0l0,-0.268l0.144,0l0.146,0.268l0.165,-0l-0.157,-0.284c0.041,-0.005 0.067,-0.016 0.087,-0.036c0.035,-0.035 0.048,-0.091 0.048,-0.169c0,-0.092 -0.019,-0.144 -0.047,-0.172c-0.034,-0.034 -0.082,-0.039 -0.164,-0.039l-0.38,0Zm0.158,0.085l0.154,0c0.064,0 0.08,0.006 0.096,0.021c0.019,0.019 0.026,0.058 0.026,0.108c0,0.054 -0.006,0.094 -0.026,0.114c-0.015,0.014 -0.033,0.021 -0.096,0.021l-0.154,0l0,-0.264Z" style="fill:#222;fill-rule:nonzero;"/></g><g transform="matrix(42.344626,0,0,42.344626,1233.990643,525.732912)"><path d="M0.304,-0.7c-0.084,0 -0.128,0.01 -0.16,0.043c-0.044,0.044 -0.073,0.136 -0.073,0.307c0,0.171 0.026,0.266 0.07,0.31c0.033,0.032 0.079,0.04 0.163,0.04l0.321,-0l0,-0.093l-0.242,0c-0.056,0 -0.082,-0.003 -0.102,-0.023c-0.034,-0.033 -0.047,-0.112 -0.047,-0.234c0,-0.122 0.013,-0.201 0.047,-0.235c0.02,-0.019 0.046,-0.023 0.102,-0.023l0.242,0l0,-0.092l-0.321,0Z" style="fill:#222;fill-rule:nonzero;"/></g><g transform="matrix(42.344626,0,0,42.344626,1280.908489,525.732912)"><path d="M0.304,-0.705c-0.084,0 -0.127,0.011 -0.16,0.044c-0.043,0.044 -0.073,0.135 -0.073,0.311c0,0.176 0.027,0.27 0.071,0.314c0.033,0.032 0.078,0.041 0.162,0.041l0.212,0c0.084,0 0.127,-0.011 0.159,-0.043c0.045,-0.045 0.074,-0.135 0.074,-0.312c0,-0.175 -0.025,-0.268 -0.07,-0.314c-0.033,-0.032 -0.078,-0.041 -0.163,-0.041l-0.212,0Zm0.076,0.084l0.061,0c0.056,0 0.083,0.006 0.102,0.025c0.034,0.034 0.047,0.113 0.047,0.246c0,0.133 -0.013,0.212 -0.048,0.246c-0.018,0.019 -0.045,0.025 -0.101,0.025l-0.061,0c-0.056,0 -0.082,-0.005 -0.102,-0.025c-0.034,-0.034 -0.047,-0.113 -0.047,-0.246c0,-0.133 0.013,-0.212 0.047,-0.246c0.019,-0.019 0.046,-0.025 0.102,-0.025Z" style="fill:#222;fill-rule:nonzero;"/></g><g transform="matrix(42.344626,0,0,42.344626,1333.839272,525.732912)"><path d="M0.108,-0.7l0,0.7l0.387,-0c0.093,-0 0.143,-0.011 0.181,-0.049c0.045,-0.045 0.072,-0.131 0.072,-0.301c0,-0.17 -0.024,-0.258 -0.07,-0.303c-0.038,-0.038 -0.09,-0.047 -0.183,-0.047l-0.387,0Zm0.158,0.087l0.165,0c0.06,0 0.089,0.006 0.109,0.026c0.037,0.036 0.048,0.117 0.048,0.237c0,0.12 -0.011,0.201 -0.048,0.237c-0.02,0.02 -0.049,0.026 -0.109,0.026l-0.165,0l0,-0.526Z" style="fill:#222;fill-rule:nonzero;"/></g><g transform="matrix(42.344626,0,0,42.344626,1386.685365,525.732912)"><path d="M0.108,-0.7l0,0.7l0.509,-0l0,-0.093l-0.351,0l0,-0.216l0.343,0l0,-0.093l-0.343,0l0,-0.206l0.351,0l0,-0.092l-0.509,0Z" style="fill:#222;fill-rule:nonzero;"/></g><g transform="matrix(42.344626,0,0,42.344626,1433.984312,525.732912)"><path d="M0.108,-0.7l0,0.7l0.387,-0c0.093,-0 0.143,-0.011 0.181,-0.049c0.045,-0.045 0.072,-0.131 0.072,-0.301c0,-0.17 -0.024,-0.258 -0.07,-0.303c-0.038,-0.038 -0.09,-0.047 -0.183,-0.047l-0.387,0Zm0.158,0.087l0.165,0c0.06,0 0.089,0.006 0.109,0.026c0.037,0.036 0.048,0.117 0.048,0.237c0,0.12 -0.011,0.201 -0.048,0.237c-0.02,0.02 -0.049,0.026 -0.109,0.026l-0.165,0l0,-0.526Z" style="fill:#222;fill-rule:nonzero;"/></g></g></g><g transform="matrix(4.841945,0,0,4.841945,-1956.782682,134.936662)"><g><g transform="matrix(50,0,0,50,492.530102,23.430387)"><path d="M0.294,-0.7l-0.258,0.7l0.114,-0l0.05,-0.14l0.323,0l0.046,0.14l0.165,-0l-0.228,-0.668c-0.009,-0.027 -0.016,-0.032 -0.049,-0.032l-0.163,0Zm0.061,0.127c0.004,-0.01 0.005,-0.012 0.013,-0.012c0.008,0 0.01,0.002 0.013,0.012l0.112,0.34l-0.26,-0l0.122,-0.34Z" style="fill:#222;fill-rule:nonzero;"/></g><g transform="matrix(50,0,0,50,528.980102,23.430387)"><path d="M0.088,-0.556l0,0.556l0.148,-0l0,-0.343c0,-0.029 0.003,-0.047 0.015,-0.059c0.014,-0.014 0.037,-0.019 0.085,-0.019l0.116,0l0,-0.137l-0.031,0c-0.012,0 -0.02,0.002 -0.031,0.007l-0.123,0.054c-0.011,0.004 -0.016,0.006 -0.022,0.006c-0.006,0 -0.009,-0.003 -0.009,-0.013l0,-0.052l-0.148,0Z" style="fill:#222;fill-rule:nonzero;"/></g><g transform="matrix(50,0,0,50,551.230102,23.430387)"><path d="M0.088,-0.556l0,0.556l0.148,-0l0,-0.475l0.212,0l0,0.475l0.141,-0l0,-0.475l0.135,0c0.065,0 0.079,0.025 0.079,0.105l0,0.37l0.147,-0l0,-0.383c0,-0.126 -0.033,-0.173 -0.158,-0.173l-0.704,0Z" style="fill:#222;fill-rule:nonzero;"/></g><g transform="matrix(50,0,0,50,601.080102,23.430387)"><path d="M0.259,-0.561c-0.066,0 -0.106,0.01 -0.137,0.041c-0.038,0.038 -0.058,0.106 -0.058,0.241c0,0.136 0.018,0.205 0.055,0.243c0.032,0.031 0.074,0.041 0.14,0.041l0.164,0c0.066,0 0.106,-0.01 0.137,-0.041c0.038,-0.038 0.058,-0.107 0.058,-0.242c0,-0.136 -0.018,-0.204 -0.055,-0.242c-0.032,-0.031 -0.074,-0.041 -0.14,-0.041l-0.164,0Zm0.049,0.076l0.066,0c0.029,0 0.047,0.003 0.062,0.018c0.023,0.023 0.033,0.076 0.033,0.189c0,0.111 -0.01,0.165 -0.033,0.189c-0.015,0.015 -0.033,0.018 -0.062,0.018l-0.066,0c-0.029,0 -0.047,-0.003 -0.062,-0.018c-0.023,-0.024 -0.033,-0.078 -0.033,-0.19c0,-0.112 0.01,-0.165 0.033,-0.188c0.015,-0.015 0.033,-0.018 0.062,-0.018Z" style="fill:#222;fill-rule:nonzero;"/></g><g transform="matrix(50,0,0,50,633.180102,23.430387)"><path d="M0.088,-0.556l0,0.556l0.148,-0l0,-0.343c0,-0.029 0.003,-0.047 0.015,-0.059c0.014,-0.014 0.037,-0.019 0.085,-0.019l0.116,0l0,-0.137l-0.031,0c-0.012,0 -0.02,0.002 -0.031,0.007l-0.123,0.054c-0.011,0.004 -0.016,0.006 -0.022,0.006c-0.006,0 -0.009,-0.003 -0.009,-0.013l0,-0.052l-0.148,0Z" style="fill:#222;fill-rule:nonzero;"/></g><g transform="matrix(50,0,0,50,655.030102,23.430387)"><path d="M0.248,-0.557c-0.059,0 -0.097,0.008 -0.126,0.037c-0.036,0.036 -0.058,0.1 -0.058,0.241c0,0.141 0.019,0.205 0.055,0.241c0.029,0.029 0.07,0.038 0.129,0.038l0.316,-0l0,-0.081l-0.259,0c-0.028,0 -0.047,-0.001 -0.061,-0.016c-0.021,-0.021 -0.031,-0.065 -0.033,-0.14l0.381,0l0,-0.054c0,-0.132 -0.008,-0.194 -0.044,-0.23c-0.028,-0.028 -0.067,-0.036 -0.136,-0.036l-0.164,0Zm0.057,0.073l0.051,0c0.033,0 0.053,0.003 0.069,0.018c0.025,0.026 0.026,0.077 0.027,0.159l-0.241,0c0.001,-0.087 0.009,-0.137 0.032,-0.16c0.015,-0.014 0.034,-0.017 0.062,-0.017Z" style="fill:#222;fill-rule:nonzero;"/></g><g transform="matrix(50,0,0,50,685.580102,23.430387)"><path d="M0.445,-0.725l0,0.169l-0.197,0c-0.06,0 -0.097,0.008 -0.127,0.038c-0.035,0.035 -0.057,0.104 -0.057,0.24c0,0.136 0.02,0.205 0.055,0.24c0.03,0.03 0.069,0.038 0.129,0.038l0.344,-0l0,-0.725l-0.147,0Zm0,0.249l0,0.396l-0.137,0c-0.029,0 -0.048,-0.002 -0.062,-0.017c-0.023,-0.023 -0.033,-0.076 -0.033,-0.181c0,-0.105 0.01,-0.158 0.033,-0.181c0.014,-0.015 0.033,-0.017 0.062,-0.017l0.137,0Z" style="fill:#222;fill-rule:nonzero;"/></g><g transform="matrix(50,0,0,50,717.630102,23.430387)"><path d="M0.108,-0.7l0,0.7l0.157,-0l0,-0.242l0.216,0c0.081,0 0.133,-0.007 0.168,-0.041c0.031,-0.032 0.05,-0.087 0.05,-0.19c0,-0.1 -0.018,-0.156 -0.05,-0.188c-0.034,-0.034 -0.087,-0.039 -0.168,-0.039l-0.373,0Zm0.157,0.085l0.157,0c0.062,0 0.077,0.005 0.093,0.021c0.022,0.022 0.028,0.064 0.028,0.122c0,0.061 -0.006,0.102 -0.029,0.125c-0.015,0.015 -0.03,0.02 -0.092,0.02l-0.157,0l0,-0.288Z" style="fill:#222;fill-rule:nonzero;"/></g><g transform="matrix(50,0,0,50,752.480102,23.430387)"><path d="M0.088,-0.556l0,0.556l0.148,-0l0,-0.343c0,-0.029 0.003,-0.047 0.015,-0.059c0.014,-0.014 0.037,-0.019 0.085,-0.019l0.116,0l0,-0.137l-0.031,0c-0.012,0 -0.02,0.002 -0.031,0.007l-0.123,0.054c-0.011,0.004 -0.016,0.006 -0.022,0.006c-0.006,0 -0.009,-0.003 -0.009,-0.013l0,-0.052l-0.148,0Z" style="fill:#222;fill-rule:nonzero;"/></g><g transform="matrix(50,0,0,50,774.330102,23.430387)"><path d="M0.248,-0.557c-0.059,0 -0.097,0.008 -0.126,0.037c-0.036,0.036 -0.058,0.1 -0.058,0.241c0,0.141 0.019,0.205 0.055,0.241c0.029,0.029 0.07,0.038 0.129,0.038l0.316,-0l0,-0.081l-0.259,0c-0.028,0 -0.047,-0.001 -0.061,-0.016c-0.021,-0.021 -0.031,-0.065 -0.033,-0.14l0.381,0l0,-0.054c0,-0.132 -0.008,-0.194 -0.044,-0.23c-0.028,-0.028 -0.067,-0.036 -0.136,-0.036l-0.164,0Zm0.057,0.073l0.051,0c0.033,0 0.053,0.003 0.069,0.018c0.025,0.026 0.026,0.077 0.027,0.159l-0.241,0c0.001,-0.087 0.009,-0.137 0.032,-0.16c0.015,-0.014 0.034,-0.017 0.062,-0.017Z" style="fill:#222;fill-rule:nonzero;"/></g><g transform="matrix(50,0,0,50,804.780102,23.430387)"><path d="M0.205,-0.556c-0.094,0 -0.143,0.048 -0.143,0.117c0,0.056 0.025,0.085 0.091,0.135l0.168,0.126c0.025,0.019 0.037,0.033 0.037,0.055c0,0.025 -0.013,0.042 -0.049,0.042l-0.25,0l0,0.081l0.315,-0c0.096,-0 0.145,-0.048 0.145,-0.12c0,-0.055 -0.024,-0.086 -0.092,-0.137l-0.168,-0.127c-0.024,-0.018 -0.036,-0.03 -0.036,-0.052c0,-0.023 0.015,-0.039 0.047,-0.039l0.228,0l0,-0.081l-0.293,0Z" style="fill:#222;fill-rule:nonzero;"/></g><g transform="matrix(50,0,0,50,830.680102,23.430387)"><path d="M0.205,-0.556c-0.094,0 -0.143,0.048 -0.143,0.117c0,0.056 0.025,0.085 0.091,0.135l0.168,0.126c0.025,0.019 0.037,0.033 0.037,0.055c0,0.025 -0.013,0.042 -0.049,0.042l-0.25,0l0,0.081l0.315,-0c0.096,-0 0.145,-0.048 0.145,-0.12c0,-0.055 -0.024,-0.086 -0.092,-0.137l-0.168,-0.127c-0.024,-0.018 -0.036,-0.03 -0.036,-0.052c0,-0.023 0.015,-0.039 0.047,-0.039l0.228,0l0,-0.081l-0.293,0Z" style="fill:#222;fill-rule:nonzero;"/></g></g></g></g></svg>